<svg xmlns="http://www.w3.org/2000/svg" xmlns:xlink="http://www.w3.org/1999/xlink" style="isolation:isolate" viewBox="0 0 180 245.435" width="180pt" height="245.435pt"><g><path fill="currentColor" d=" M 59.781 157.015 C 50.832 157.015 43.552 149.736 43.552 140.786 C 43.552 131.837 50.832 124.557 59.781 124.557 C 68.731 124.557 76.01 131.837 76.01 140.786 C 76.01 149.736 68.731 157.015 59.781 157.015 Z  M 83.844 140.786 C 83.844 127.519 73.049 116.724 59.781 116.724 C 46.514 116.724 35.719 127.519 35.719 140.786 C 35.719 154.054 46.514 164.849 59.781 164.849 C 73.049 164.849 83.844 154.054 83.844 140.786 Z " /><path fill="currentColor" d=" M 78.807 205.143 L 101.191 205.143 L 101.191 207.383 L 78.807 207.383 L 78.807 205.143 Z  M 70.974 215.217 L 109.029 215.217 L 109.029 197.309 L 70.974 197.309 L 70.974 215.217 Z " /><path fill="currentColor" d=" M 167.08 167.089 L 150.744 167.089 L 156.513 129.592 L 171.248 129.592 L 167.08 167.089 Z  M 151.748 197.306 L 146.095 197.306 L 149.538 174.922 L 155.822 174.922 L 151.748 197.306 Z  M 135.579 222.493 C 139.46 217.261 142.408 211.393 144.306 205.144 L 150.323 205.144 L 147.173 222.493 L 135.579 222.493 Z  M 121.853 225.811 C 112.989 233.413 101.679 237.602 90 237.602 C 78.325 237.602 67.011 233.413 58.147 225.811 C 56.958 224.79 55.825 223.708 54.743 222.583 L 54.743 222.493 L 54.658 222.493 C 47.751 215.269 43.18 206.067 41.652 196.122 L 28.707 111.989 C 36.514 104.847 46.55 100.859 57.177 100.731 C 67.908 100.589 78.085 104.383 86.085 111.423 L 86.085 125.677 L 93.919 125.677 L 93.919 111.423 C 101.92 104.388 112.109 100.602 122.823 100.731 C 133.45 100.859 143.486 104.847 151.293 111.989 L 138.352 196.122 C 136.82 206.067 132.249 215.269 125.342 222.493 L 125.257 222.493 L 125.257 222.583 C 124.179 223.708 123.046 224.79 121.853 225.811 Z  M 29.677 205.144 L 35.699 205.144 C 37.592 211.393 40.545 217.261 44.421 222.493 L 32.831 222.493 L 29.677 205.144 Z  M 30.462 174.922 L 33.905 197.306 L 28.252 197.306 L 24.183 174.922 L 30.462 174.922 Z  M 8.756 129.592 L 23.487 129.592 L 29.256 167.089 L 12.924 167.089 L 8.756 129.592 Z  M 90 104.456 C 80.742 96.825 69.204 92.764 57.078 92.893 C 46.687 93.022 36.78 96.28 28.445 102.173 L 28.445 100.495 C 28.445 66.551 56.057 38.935 90 38.935 C 123.943 38.935 151.559 66.551 151.559 100.495 L 151.559 102.173 C 143.22 96.28 133.313 93.022 122.922 92.893 C 122.707 92.893 122.492 92.889 122.278 92.889 C 110.405 92.889 99.095 96.962 90 104.456 Z  M 8.297 100.495 C 8.297 78.668 16.796 58.147 32.226 42.717 C 44.189 30.754 59.272 22.903 75.836 20.019 L 78.501 19.556 L 79.012 16.899 C 80.025 11.649 84.643 7.838 90 7.838 C 95.357 7.838 99.975 11.645 100.984 16.89 L 101.495 19.547 L 104.156 20.011 C 122.857 23.277 139.966 33.098 152.324 47.657 C 164.823 62.384 171.707 81.149 171.707 100.495 L 171.707 121.758 L 157.719 121.758 L 159.35 111.161 L 155.478 110.568 L 159.393 110.568 L 159.393 100.495 C 159.393 62.229 128.265 31.102 90 31.102 C 51.739 31.102 20.607 62.229 20.607 100.495 L 20.607 110.568 L 24.526 110.568 L 20.654 111.161 L 22.285 121.758 L 8.297 121.758 L 8.297 100.495 Z  M 180 121.758 L 179.541 121.758 L 179.541 100.495 C 179.541 79.291 171.995 58.727 158.294 42.588 C 145.301 27.273 127.506 16.748 107.967 12.761 C 105.345 5.228 98.177 0 90 0 C 81.823 0 74.655 5.228 72.033 12.765 C 54.838 16.255 39.201 24.663 26.685 37.179 C 9.773 54.091 0.464 76.574 0.464 100.495 L 0.464 121.758 L 0 121.758 L 5.91 174.922 L 16.22 174.922 L 26.294 230.327 L 51.451 230.327 C 51.975 230.812 52.503 231.292 53.048 231.756 C 63.328 240.577 76.454 245.435 90 245.435 C 103.551 245.435 116.672 240.577 126.956 231.756 C 127.497 231.292 128.025 230.812 128.549 230.327 L 153.71 230.327 L 163.784 174.922 L 174.094 174.922 L 180 121.758 Z " /><path fill="currentColor" d=" M 60.021 135.75 C 57.107 135.75 54.746 138.111 54.746 141.025 C 54.746 143.939 57.107 146.3 60.021 146.3 C 62.936 146.3 65.296 143.939 65.296 141.025 C 65.296 138.111 62.936 135.75 60.021 135.75 Z " /><path fill="currentColor" d=" M 120.22 157.015 C 111.271 157.015 103.991 149.736 103.991 140.786 C 103.991 131.837 111.271 124.557 120.22 124.557 C 129.17 124.557 136.449 131.837 136.449 140.786 C 136.449 149.736 129.17 157.015 120.22 157.015 Z  M 144.283 140.786 C 144.283 127.519 133.488 116.724 120.22 116.724 C 106.953 116.724 96.158 127.519 96.158 140.786 C 96.158 154.054 106.953 164.849 120.22 164.849 C 133.488 164.849 144.283 154.054 144.283 140.786 Z " /><path fill="currentColor" d=" M 120.46 135.75 C 117.546 135.75 115.185 138.111 115.185 141.025 C 115.185 143.939 117.546 146.3 120.46 146.3 C 123.375 146.3 125.736 143.939 125.736 141.025 C 125.736 138.111 123.375 135.75 120.46 135.75 Z " /><path fill="currentColor" d=" M 82.519 179.491 L 90.001 175.456 L 97.482 179.491 L 101.199 172.593 L 90.001 166.554 L 78.802 172.593 L 82.519 179.491 Z " /><path fill="currentColor" d=" M 90.001 24.945 C 92.782 24.945 95.036 22.691 95.036 19.91 C 95.036 17.129 92.782 14.871 90.001 14.871 C 87.219 14.871 84.966 17.129 84.966 19.91 C 84.966 22.691 87.219 24.945 90.001 24.945 Z " /></g></svg>