<svg xmlns="http://www.w3.org/2000/svg" xmlns:xlink="http://www.w3.org/1999/xlink" style="isolation:isolate" viewBox="0 0 160 239.985" width="160pt" height="239.985pt"><g><g><path d=" M 46.104 171.079 L 53.883 171.079 L 53.883 121.067 L 46.104 121.067 L 46.104 171.079 Z " /><path d=" M 106.119 171.079 L 113.897 171.079 L 113.897 121.067 L 106.119 121.067 L 106.119 171.079 Z " /><path d=" M 73.889 150.054 L 86.113 150.054 L 86.113 162.466 L 73.889 162.466 L 73.889 150.054 Z  M 73.889 129.958 L 86.113 129.958 L 86.113 142.276 L 73.889 142.276 L 73.889 129.958 Z  M 66.106 170.244 L 93.891 170.244 L 93.891 122.176 L 66.106 122.176 L 66.106 170.244 Z " /></g><g><path d=" M 105.625 55.481 L 105.492 29.437 L 94.359 29.375 L 94.5 55.184 L 60 55.184 L 60 62.963 L 127.999 62.963 L 127.999 55.184 L 105.625 55.481 Z " /><path d=" M 30.667 55.184 L 30.667 62.963 L 47.999 62.963 L 47.999 55.184 L 30.667 55.184 Z " /></g><g><path d=" M 83.889 6.65 L 94.742 6.65 L 94.742 14.429 L 65.258 14.429 L 65.258 6.65 L 76.111 6.65 L 76.111 0 L 83.889 0 L 83.889 6.65 Z " fill-rule="evenodd" /></g><g><path d=" M 59.107 30.155 C 56.349 30.155 54.107 32.397 54.107 35.155 C 54.107 37.912 56.349 40.155 59.107 40.155 C 61.864 40.155 64.107 37.912 64.107 35.155 C 64.107 32.397 61.864 30.155 59.107 30.155 Z " /><path d=" M 80.107 30.155 C 77.349 30.155 75.107 32.397 75.107 35.155 C 75.107 37.912 77.349 40.155 80.107 40.155 C 82.864 40.155 85.107 37.912 85.107 35.155 C 85.107 32.397 82.864 30.155 80.107 30.155 Z " /></g><path d=" M 107.925 192.194 L 105.402 192.194 L 107.81 184.97 L 112.742 184.97 L 107.925 192.194 Z  M 47.258 184.97 L 52.19 184.97 L 54.598 192.194 L 52.075 192.194 L 47.258 184.97 Z  M 26.097 192.194 L 18.873 192.194 L 18.873 182.708 L 26.097 182.708 L 26.097 192.194 Z  M 31.101 232.202 L 9.965 232.202 L 18.02 199.972 L 31.101 199.972 L 31.101 232.202 Z  M 8.869 162.195 L 8.869 79.942 L 26.097 79.942 L 26.097 162.224 L 8.869 162.195 Z  M 40.125 17.521 L 119.625 17.333 Q 120.188 17.708 126.563 72.164 L 33.188 72.164 Q 39.879 17.708 40.125 17.521 Z  M 151.131 163.667 L 133.903 163.333 L 133.903 79.942 L 151.131 79.942 L 151.131 163.667 Z  M 141.127 192.194 L 133.903 192.194 L 133.903 182.146 L 141.127 182.146 L 141.127 192.194 Z  M 128.899 232.202 L 128.899 199.972 L 141.98 199.972 L 150.035 232.202 L 128.899 232.202 Z  M 106.118 87.154 L 53.882 86.996 L 53.882 80.13 L 106.118 80.13 L 106.118 87.154 Z  M 53.882 94.774 L 106.118 94.936 L 106.118 102.169 L 53.882 102.169 L 53.882 94.774 Z  M 33.875 177.191 L 33.875 169.967 L 33.875 162.188 L 33.875 134.958 L 33.875 127.179 L 33.875 80.13 L 46.103 80.13 L 46.103 109.952 L 113.897 109.952 L 113.897 80.13 L 126.125 80.13 L 126.125 127.179 L 126.125 134.958 L 126.125 162.188 L 126.125 169.967 L 126.125 177.191 L 33.875 177.191 Z  M 76.228 192.194 L 74.425 184.97 L 85.575 184.97 L 83.772 192.194 L 76.228 192.194 Z  M 62.798 192.194 L 60.39 184.97 L 66.404 184.97 L 68.211 192.194 L 62.798 192.194 Z  M 97.202 192.194 L 91.789 192.194 L 93.596 184.97 L 99.61 184.97 L 97.202 192.194 Z  M 126.125 192.194 L 121.121 192.194 L 121.121 239.985 L 160 239.985 L 148.906 195.603 L 148.906 172.525 L 158.909 172.583 L 158.909 72.164 Q 133.284 71.873 132.938 71.146 C 132.938 70.771 124.114 12.165 124.031 12.247 C 124.031 12.279 33.555 12.49 33.492 12.365 C 33.582 12.575 26.059 72.13 26.063 71.99 Q 26.2 72.13 1.091 72.164 L 1.091 172.396 L 11.094 172.396 L 11.094 195.603 L 0 239.985 L 38.879 239.985 L 38.879 192.194 L 33.875 192.194 L 33.875 184.97 L 37.907 184.97 L 47.91 199.972 L 60.59 199.972 L 99.41 199.972 L 112.09 199.972 L 122.093 184.97 L 126.125 184.97 L 126.125 192.194 Z " /></g></svg>