<svg xmlns="http://www.w3.org/2000/svg" xmlns:xlink="http://www.w3.org/1999/xlink" style="isolation:isolate" viewBox="0 0 180 179.933" width="180pt" height="179.933pt"><g><path d=" M 67.198 104.968 C 68.267 103.898 69.674 103.36 71.08 103.36 C 72.487 103.36 73.893 103.898 74.963 104.968 C 76 106.005 76.574 107.385 76.574 108.851 C 76.574 110.317 76 111.697 74.963 112.733 C 72.823 114.876 69.337 114.876 67.198 112.733 C 66.161 111.697 65.59 110.317 65.59 108.851 C 65.59 107.385 66.161 106.005 67.198 104.968 Z  M 71.08 120.367 C 74.032 120.367 76.98 119.244 79.225 116.996 C 81.401 114.82 82.599 111.928 82.599 108.851 C 82.599 105.774 81.401 102.881 79.225 100.706 C 74.735 96.216 67.425 96.212 62.935 100.706 C 60.76 102.881 59.561 105.774 59.561 108.851 C 59.561 111.928 60.76 114.82 62.935 116.996 C 65.18 119.244 68.132 120.367 71.08 120.367 Z " fill="currentColor"/><path d=" M 40.284 121.604 C 39.023 120.343 36.979 120.343 35.718 121.604 C 34.457 122.866 34.457 124.909 35.718 126.17 C 36.979 127.432 39.023 127.432 40.284 126.17 C 41.545 124.909 41.545 122.866 40.284 121.604 Z " fill="currentColor"/><path d=" M 130.503 23.923 C 131.765 22.661 131.765 20.618 130.503 19.356 C 129.242 18.095 127.199 18.095 125.937 19.356 C 124.676 20.618 124.676 22.661 125.937 23.923 C 127.199 25.184 129.242 25.184 130.503 23.923 Z " fill="currentColor"/><path d=" M 109.452 32.945 C 110.713 31.684 110.713 29.64 109.452 28.379 C 108.191 27.118 106.147 27.118 104.886 28.379 C 103.625 29.64 103.625 31.684 104.886 32.945 C 106.147 34.206 108.191 34.206 109.452 32.945 Z " fill="currentColor"/><path d=" M 160.576 53.996 C 161.838 52.735 161.838 50.691 160.576 49.43 C 159.315 48.169 157.272 48.169 156.01 49.43 C 154.749 50.691 154.749 52.735 156.01 53.996 C 157.272 55.257 159.315 55.257 160.576 53.996 Z " fill="currentColor"/><path d=" M 151.555 75.047 C 152.816 73.786 152.816 71.742 151.555 70.481 C 150.293 69.22 148.25 69.22 146.988 70.481 C 145.727 71.742 145.727 73.786 146.988 75.047 C 148.25 76.308 150.293 76.308 151.555 75.047 Z " fill="currentColor"/><path d=" M 17.673 121.604 C 16.412 122.866 16.412 124.909 17.673 126.17 C 18.934 127.432 20.978 127.432 22.239 126.17 C 23.501 124.909 23.501 122.866 22.239 121.604 C 20.978 120.343 18.934 120.343 17.673 121.604 Z " fill="currentColor"/><path d=" M 29.703 145.663 C 28.441 146.924 28.441 148.968 29.703 150.229 C 30.964 151.49 33.007 151.49 34.269 150.229 C 35.53 148.968 35.53 146.924 34.269 145.663 C 33.007 144.402 30.964 144.402 29.703 145.663 Z " fill="currentColor"/><path d=" M 53.761 157.692 C 52.5 158.954 52.5 160.997 53.761 162.258 C 55.022 163.52 57.066 163.52 58.327 162.258 C 59.588 160.997 59.588 158.954 58.327 157.692 C 57.066 156.431 55.022 156.431 53.761 157.692 Z " fill="currentColor"/><path d=" M 41.732 133.634 C 40.471 134.895 40.471 136.939 41.732 138.2 C 42.993 139.461 45.037 139.461 46.298 138.2 C 47.559 136.939 47.559 134.895 46.298 133.634 C 45.037 132.372 42.993 132.372 41.732 133.634 Z " fill="currentColor"/><path d=" M 58.328 144.215 C 59.589 142.954 59.589 140.91 58.328 139.649 C 57.067 138.388 55.023 138.388 53.762 139.649 C 52.501 140.91 52.501 142.954 53.762 144.215 C 55.023 145.477 57.067 145.477 58.328 144.215 Z " fill="currentColor"/><path d=" M 165.427 114.73 L 158.427 107.731 L 163.981 103.765 L 169.392 109.177 L 165.427 114.73 Z  M 157.909 125.255 L 147.905 115.252 L 153.455 111.283 L 161.874 119.702 L 157.909 125.255 Z  M 145.74 138.194 L 137.684 133.717 C 139.628 128.517 140.949 123.103 141.622 117.553 L 141.702 117.573 L 154.03 129.904 L 145.74 138.194 Z  M 126.422 143.038 L 113.866 134.345 C 114.906 132.601 115.837 130.792 116.656 128.93 L 130.031 136.362 C 128.964 138.643 127.762 140.875 126.422 143.038 Z  M 108.138 157.749 L 104.364 152.299 L 114.526 142.133 L 119.981 145.91 L 108.138 157.749 Z  M 74.095 173.835 L 74.095 158.548 C 82.072 158.076 89.741 155.716 96.572 151.632 L 105.265 164.191 C 95.635 170.163 84.891 173.343 74.095 173.835 Z  M 6.103 111.864 L 46.993 111.864 C 47.65 117.209 50.047 122.152 53.913 126.018 C 57.779 129.887 62.725 132.281 68.067 132.938 L 68.067 173.828 C 52.338 173.089 36.916 166.657 25.097 154.837 C 13.274 143.018 6.842 127.596 6.103 111.864 Z  M 15.74 74.665 L 28.299 83.362 C 24.218 90.193 21.858 97.862 21.382 105.839 L 6.099 105.839 C 6.588 95.043 9.771 84.299 15.74 74.665 Z  M 33.958 59.861 L 37.735 65.315 L 27.543 75.504 L 22.092 71.73 L 33.958 59.861 Z  M 68.067 43.885 L 68.067 59.191 C 60.239 59.66 52.51 61.954 45.593 66.075 L 36.896 53.512 C 46.322 47.662 56.967 44.38 68.067 43.885 Z  M 139.582 7.191 L 148.018 15.623 L 112.519 51.118 C 101.003 42.818 87.437 38.229 73.121 37.82 C 72.319 37.796 71.52 37.79 70.724 37.793 L 139.582 7.191 Z  M 139.06 48.771 L 104.229 83.603 L 96.394 75.771 L 131.226 40.94 L 139.06 48.771 Z  M 172.809 40.418 L 142.141 109.428 C 142.147 108.556 142.137 107.684 142.114 106.813 C 141.705 92.527 137.136 78.99 128.868 67.488 L 164.374 31.982 L 172.809 40.418 Z  M 95.321 110.184 C 95.344 109.741 95.361 109.295 95.361 108.85 C 95.361 107.655 95.272 106.473 95.103 105.31 L 135.726 116.001 C 135.178 121.059 134.042 126.001 132.345 130.749 L 95.321 110.184 Z  M 92.782 119.748 C 93.32 118.675 93.779 117.569 94.152 116.43 L 111.363 125.992 C 110.647 127.682 109.822 129.323 108.897 130.904 L 92.782 119.748 Z  M 74.095 132.938 C 76.862 132.598 79.52 131.789 81.976 130.554 L 93.135 146.666 C 87.325 150.067 80.84 152.058 74.095 152.513 L 74.095 132.938 Z  M 58.175 95.947 C 61.622 92.497 66.204 90.602 71.081 90.602 C 75.957 90.602 80.54 92.497 83.987 95.947 C 87.434 99.394 89.332 103.977 89.332 108.85 C 89.332 113.726 87.434 118.309 83.987 121.756 L 83.987 121.756 C 80.54 125.202 75.957 127.101 71.081 127.101 C 66.204 127.101 61.622 125.202 58.175 121.756 C 54.728 118.309 52.83 113.726 52.83 108.85 C 52.83 103.977 54.728 99.394 58.175 95.947 Z  M 68.067 84.765 C 65.3 85.105 62.642 85.91 60.186 87.148 L 49.03 71.04 C 54.91 67.61 61.444 65.668 68.067 65.219 L 68.067 84.765 Z  M 97.19 66.451 C 90.121 62.093 82.161 59.676 74.095 59.194 L 74.095 43.888 C 86.443 44.452 98.144 48.424 108.197 55.443 L 97.19 66.451 Z  M 74.095 84.765 L 74.095 65.223 C 80.593 65.665 87.004 67.54 92.795 70.845 L 78.054 85.587 C 76.766 85.204 75.442 84.93 74.095 84.765 Z  M 91.739 96.092 C 90.762 94.511 89.596 93.032 88.249 91.685 C 86.925 90.358 85.472 89.212 83.921 88.245 L 92.132 80.034 L 99.966 87.868 L 91.739 96.092 Z  M 109.138 87.221 C 112.113 92.444 113.968 98.209 114.599 104.208 L 96.827 99.529 L 109.138 87.221 Z  M 124.543 71.816 C 131.744 82.16 135.723 94.244 136.089 106.984 C 136.115 107.948 136.115 108.909 136.102 109.867 L 120.78 105.835 C 120.291 97.644 117.811 89.78 113.536 82.823 L 124.543 71.816 Z  M 55.181 90.509 C 54.748 90.886 54.322 91.275 53.913 91.685 C 53.503 92.094 53.117 92.517 52.741 92.949 L 32.581 78.994 L 41.221 70.35 L 55.181 90.509 Z  M 46.993 105.839 L 27.421 105.839 C 27.876 99.094 29.867 92.606 33.265 86.798 L 49.38 97.955 C 48.142 100.414 47.333 103.072 46.993 105.839 Z  M 86.981 127.19 C 87.414 126.814 87.84 126.427 88.249 126.018 C 88.659 125.609 89.045 125.186 89.421 124.75 L 109.488 138.646 L 100.878 147.26 L 86.981 127.19 Z  M 150.154 106.235 L 180 39.081 L 164.374 23.458 L 143.323 44.509 L 135.488 36.674 L 156.542 15.623 L 140.916 0 L 41.832 44.036 L 41.839 44.053 C 38.065 45.763 34.423 47.813 30.95 50.197 L 28.454 51.907 L 30.471 54.823 L 17.054 68.24 L 14.139 66.223 L 12.425 68.719 C -6.902 96.891 -3.366 134.902 20.834 159.1 C 34.589 172.854 52.8 179.933 71.137 179.933 C 85.056 179.929 99.055 175.849 111.212 167.506 L 113.708 165.795 L 111.628 162.788 L 125.016 149.396 L 128.023 151.48 L 129.737 148.984 C 131.866 145.88 133.728 142.645 135.32 139.3 L 146.786 145.672 L 160.6 131.858 L 177.266 108.526 L 164.634 95.894 L 150.154 106.235 Z " fill="currentColor"/></g></svg>