<svg xmlns="http://www.w3.org/2000/svg" xmlns:xlink="http://www.w3.org/1999/xlink" style="isolation:isolate" viewBox="0 0 88 291.758" width="88pt" height="291.758pt"><path d=" M 63.791 86.873 L 63.786 111.082 L 63.784 118.754 L 29.536 118.751 L 29.545 79.19 L 63.796 79.197 L 63.791 86.873 Z  M 79.733 95.141 L 79.732 102.82 L 72.056 102.815 L 72.054 95.14 L 79.733 95.141 Z  M 63.75 283.491 L 29.506 283.484 L 29.504 275.808 L 63.755 275.815 L 63.75 283.491 Z  M 24.211 181.927 L 24.213 169.329 L 46.652 169.337 L 46.653 161.069 L 24.218 161.064 L 24.218 148.072 L 46.656 148.08 L 46.658 139.812 L 24.223 139.807 L 24.222 127.014 L 69.098 127.024 L 69.087 181.936 L 24.211 181.927 Z  M 61.39 267.55 L 61.41 190.199 L 69.085 190.204 L 69.069 267.551 L 61.39 267.55 Z  M 31.869 267.54 L 24.193 267.542 L 24.212 190.192 L 31.885 190.193 L 31.869 267.54 Z  M 40.137 267.542 L 40.153 190.195 L 53.141 190.198 L 53.125 267.545 L 40.137 267.542 Z  M 29.558 11.949 L 63.609 24.784 L 63.606 39.047 L 29.556 39.037 L 29.558 11.949 Z  M 69.115 47.313 L 69.11 70.933 L 24.234 70.924 L 24.239 47.304 L 69.115 47.313 Z  M 8.281 127.011 L 15.954 127.013 L 15.946 182.517 L 8.27 182.513 L 8.281 127.011 Z  M 77.373 79.2 L 77.382 39.05 L 71.871 39.046 L 71.875 19.064 L 21.296 0 L 21.291 39.039 L 15.975 39.037 L 15.967 79.187 L 21.283 79.188 L 21.275 118.749 L 15.959 118.748 L 0.018 118.744 L 0 190.779 L 15.944 190.779 L 15.926 275.805 L 21.242 275.806 L 21.239 291.747 L 72.014 291.758 L 72.017 275.817 L 77.333 275.818 L 77.365 118.76 L 72.049 118.759 L 72.054 111.084 L 87.995 111.087 L 88 86.878 L 72.059 86.875 L 72.058 79.199 L 77.373 79.2 Z " /></svg>