<svg xmlns="http://www.w3.org/2000/svg" xmlns:xlink="http://www.w3.org/1999/xlink" style="isolation:isolate" viewBox="0 0 160 237.652" width="160pt" height="237.652pt"><g><path d=" M 77.499 54.827 C 72.751 54.827 68.885 50.961 68.885 46.213 C 68.885 41.465 72.751 37.6 77.499 37.6 C 82.247 37.6 86.113 41.465 86.113 46.213 C 86.113 50.961 82.247 54.827 77.499 54.827 Z  M 77.499 29.821 C 68.459 29.821 61.107 37.173 61.107 46.213 C 61.107 55.253 68.459 62.605 77.499 62.605 C 86.539 62.605 93.891 55.253 93.891 46.213 C 93.891 37.173 86.539 29.821 77.499 29.821 Z " /><path d=" M 105.006 53.716 C 102.244 53.716 100.006 55.953 100.006 58.715 C 100.006 61.477 102.244 63.719 105.006 63.719 C 107.768 63.719 110.005 61.477 110.005 58.715 C 110.005 55.953 107.768 53.716 105.006 53.716 Z " /><path d=" M 46.104 168.746 L 53.883 168.746 L 53.883 118.734 L 46.104 118.734 L 46.104 168.746 Z " /><path d=" M 106.119 168.746 L 113.897 168.746 L 113.897 118.734 L 106.119 118.734 L 106.119 168.746 Z " /><path d=" M 73.889 147.721 L 86.113 147.721 L 86.113 160.132 L 73.889 160.132 L 73.889 147.721 Z  M 73.889 127.625 L 86.113 127.625 L 86.113 139.942 L 73.889 139.942 L 73.889 127.625 Z  M 66.106 167.911 L 93.891 167.911 L 93.891 119.842 L 66.106 119.842 L 66.106 167.911 Z " /><path d=" M 107.925 189.86 L 105.402 189.86 L 107.81 182.636 L 112.742 182.636 L 107.925 189.86 Z  M 95.599 229.869 L 64.401 229.869 L 68.428 197.639 L 91.572 197.639 L 95.599 229.869 Z  M 47.258 182.636 L 52.19 182.636 L 54.598 189.86 L 52.075 189.86 L 47.258 182.636 Z  M 26.097 189.86 L 18.873 189.86 L 18.873 167.633 L 26.097 167.633 L 26.097 182.636 L 26.097 189.86 Z  M 31.101 229.869 L 9.965 229.869 L 18.02 197.639 L 31.101 197.639 L 31.101 229.869 Z  M 18.873 132.624 L 26.097 132.624 L 26.097 159.855 L 18.873 159.855 L 18.873 132.624 Z  M 8.869 124.846 L 8.869 77.609 L 26.097 77.609 L 26.097 124.846 L 11.094 124.846 L 8.869 124.846 Z  M 33.875 62.606 L 48.882 62.606 L 48.882 34.822 L 38.027 34.822 C 40.081 30.312 42.839 26.191 46.167 22.598 L 113.833 22.598 C 117.161 26.191 119.919 30.312 121.973 34.822 L 105.006 34.822 L 105.006 42.6 L 124.718 42.6 C 125.63 46.218 126.125 50.003 126.125 53.899 L 126.125 69.831 L 113.897 69.831 L 113.897 69.818 L 110.027 69.831 L 33.875 69.831 L 33.875 62.606 Z  M 35.282 42.6 L 41.1 42.6 L 41.1 54.828 L 33.875 54.828 L 33.875 53.899 C 33.875 50.003 34.37 46.218 35.282 42.6 Z  M 104.448 14.815 L 55.552 14.815 C 62.645 10.365 71.024 7.778 80 7.778 C 88.976 7.778 97.355 10.365 104.448 14.815 Z  M 151.131 124.846 L 148.906 124.846 L 133.903 124.846 L 133.903 77.609 L 151.131 77.609 L 151.131 124.846 Z  M 141.127 159.855 L 133.903 159.855 L 133.903 132.624 L 141.127 132.624 L 141.127 159.855 Z  M 141.127 189.86 L 133.903 189.86 L 133.903 182.636 L 133.903 167.633 L 141.127 167.633 L 141.127 189.86 Z  M 128.899 229.869 L 128.899 197.639 L 141.98 197.639 L 150.035 229.869 L 128.899 229.869 Z  M 106.118 84.82 L 53.882 84.663 L 53.882 77.796 L 106.118 77.796 L 106.118 84.82 Z  M 53.882 92.441 L 106.118 92.603 L 106.118 99.836 L 53.882 99.836 L 53.882 92.441 Z  M 33.875 174.858 L 33.875 167.633 L 33.875 159.855 L 33.875 132.624 L 33.875 124.846 L 33.875 77.796 L 46.103 77.796 L 46.103 107.619 L 113.897 107.619 L 113.897 77.796 L 126.125 77.796 L 126.125 124.846 L 126.125 132.624 L 126.125 159.855 L 126.125 167.633 L 126.125 174.858 L 33.875 174.858 Z  M 76.228 189.86 L 74.425 182.636 L 85.575 182.636 L 83.772 189.86 L 76.228 189.86 Z  M 62.798 189.86 L 60.39 182.636 L 66.404 182.636 L 68.211 189.86 L 62.798 189.86 Z  M 97.202 189.86 L 91.789 189.86 L 93.596 182.636 L 99.61 182.636 L 97.202 189.86 Z  M 126.125 189.86 L 121.121 189.86 L 121.121 237.652 L 160 237.652 L 148.906 193.27 L 148.906 167.633 L 148.906 159.855 L 148.906 132.624 L 158.909 132.624 L 158.909 69.831 L 133.903 69.831 L 133.903 53.899 C 133.903 24.179 109.72 0 80 0 C 50.28 0 26.097 24.179 26.097 53.899 L 26.097 69.831 L 1.091 69.831 L 1.091 132.624 L 11.094 132.624 L 11.094 159.855 L 11.094 167.633 L 11.094 193.27 L 0 237.652 L 38.879 237.652 L 38.879 189.86 L 33.875 189.86 L 33.875 182.636 L 37.907 182.636 L 47.91 197.639 L 60.59 197.639 L 55.587 237.652 L 104.413 237.652 L 99.41 197.639 L 112.09 197.639 L 122.093 182.636 L 126.125 182.636 L 126.125 189.86 Z " /></g></svg>